<?xml version="1.0" encoding="UTF-8" standalone="no"?>
<!-- Created with Inkscape (http://www.inkscape.org/) -->

<svg
   width="1080"
   height="1080"
   viewBox="0 0 285.74999 285.75"
   version="1.1"
   id="svg124"
   xmlns="http://www.w3.org/2000/svg"
   xmlns:svg="http://www.w3.org/2000/svg">
  <defs
     id="defs121">
    <linearGradient
       id="linearGradient3133">
      <stop
         style="stop-color:#16232b;stop-opacity:1;"
         offset="0"
         id="stop3131" />
    </linearGradient>
    <linearGradient
       id="linearGradient2920">
      <stop
         style="stop-color:#000000;stop-opacity:1;"
         offset="0"
         id="stop2918" />
    </linearGradient>
    <linearGradient
       id="linearGradient905">
      <stop
         style="stop-color:#000000;stop-opacity:1;"
         offset="0"
         id="stop903" />
    </linearGradient>
  </defs>
  <g
     id="layer1">
    <path
       id="path901"
       style="fill:#16232b;stroke-width:0.42112"
       d="M 285.75,142.875 A 142.875,142.875 0 0 1 142.875,285.75 142.875,142.875 0 0 1 -2.5e-6,142.875 142.875,142.875 0 0 1 142.875,-2.5000001e-6 142.875,142.875 0 0 1 285.75,142.875 Z" />
    <g
       id="g229"
       transform="matrix(0.74074344,0,0,0.74074344,81.834625,-7.05912)">
      <polygon
         points="1080,775.44 1080,0 920.97,159.25 920.97,634.57 446.32,633.68 304.56,775.44 "
         style="fill:#ffffff"
         id="polygon2"
         transform="matrix(0.26458333,0,0,0.26458333,-60.471316,79.110522)" />
      <polygon
         points="645.22,682.85 444.1,634.57 302.35,776.54 1077.79,776.32 "
         style="fill:#cccccc"
         id="polygon4"
         transform="matrix(0.26458333,0,0,0.26458333,-60.471316,79.110522)" />
      <path
         d="M 71.505495,98.448918 C -0.81042092,99.094501 -59.823087,158.16538 -60.466024,230.42308 c -0.293688,37.21365 14.649979,70.90834 38.970478,95.28704 l 32.525229,-32.52523 c -16.1739789,-16.40945 -25.8445,-39.20595 -24.963437,-64.28581 1.640417,-45.35752 38.560374,-82.27748 83.917895,-83.91789 25.082499,-0.87842 47.820789,8.78946 64.285809,24.96344 L 166.79518,137.4194 C 142.47468,113.0989 108.71914,98.097022 71.508141,98.448918 Z"
         style="fill:#ffffff;stroke-width:0.264583"
         id="path6" />
      <path
         d="m 72.619391,98.448918 c -45.066479,0 -84.857166,22.386392 -108.942186,56.610252 21.624395,-15.17915 47.995416,-24.14323 76.416957,-24.14323 36.742687,0 70.029918,14.88546 94.114938,38.97048 L 166.73433,137.4194 C 142.64931,113.33438 109.36208,98.448918 72.619391,98.448918 Z"
         style="fill:#cccccc;stroke-width:0.264583"
         id="path8" />
      <path
         d="m -13.9364,228.72181 c 0.529167,-15.47019 5.2149375,-30.00375 12.95135408,-42.48679 -15.88029108,21.74081 -25.31533308,48.40552 -25.55081208,77.12075 -0.174625,19.92577 4.042833,38.79585 11.662833,55.79004 L 11.087891,293.18489 C -5.0860875,276.71723 -14.814817,253.86252 -13.9364,228.72181 Z"
         style="fill:#cccccc;stroke-width:0.264583"
         id="path10" />
    </g>
  </g>
</svg>
